<svg width="647" height="464" viewBox="0 0 647 464" fill="none" xmlns="http://www.w3.org/2000/svg">
<path d="M187.946 159.061L298.482 345.418L305.625 357.459L291.624 357.499L74.9521 358.118L69.5146 358.134L67.499 353.083L3.70703 193.26L0 183.973L9.875 182.395L179.803 155.242L185.173 154.384L187.946 159.061ZM466.937 155.242L636.864 182.395L646.739 183.973L643.032 193.26L579.24 353.083L577.225 358.134L571.787 358.118L355.115 357.499L341.114 357.459L348.257 345.418L458.793 159.061L461.566 154.384L466.937 155.242ZM328.816 7.80859L436.316 142.184L439.713 146.43L437.016 151.15L329.516 339.275L322.569 351.432L315.623 339.275L208.123 151.15L205.426 146.43L208.822 142.184L316.322 7.80859L322.569 0L328.816 7.80859ZM175.355 172.94L30.4541 196.095L23.665 197.18L26.2139 203.565L80.6104 339.85L81.9961 343.322L85.7344 343.311L270.496 342.784L280.121 342.756L275.211 334.478L180.954 175.566L179.047 172.352L175.355 172.94ZM464.848 175.566L370.591 334.478L365.682 342.756L375.306 342.784L560.067 343.311L563.807 343.322L565.191 339.85L619.588 203.565L622.138 197.18L615.348 196.095L470.446 172.94L466.755 172.352L464.848 175.566ZM260.839 331.811L89.4404 332.3L38.9775 205.872L173.399 184.393L260.839 331.811ZM606.824 205.872L556.361 332.3L384.963 331.811L472.402 184.393L606.824 205.872ZM318.442 32.3711L226.774 146.955L224.439 149.874L226.294 153.12L317.962 313.539L322.737 321.896L327.513 313.539L419.18 153.12L421.035 149.874L418.699 146.955L327.032 32.3711L322.737 27.002L318.442 32.3711ZM407.774 150.907L322.737 299.724L237.699 150.907L322.737 44.6104L407.774 150.907Z" fill="black"/>
<path d="M562.947 461.974L558.188 440.151H537.293L532.534 461.974H524.292L541.936 383.967H553.544L571.189 461.974H562.947ZM538.802 432.953H556.562L547.624 391.977L538.802 432.953Z" fill="black"/>
<path d="M458.702 430.632H447.21V461.974H438.968V383.967H457.889C464.08 383.967 468.762 385.554 471.935 388.727C475.108 391.822 476.694 396.078 476.694 401.496V412.988C476.694 421.345 473.366 426.763 466.711 429.239L479.132 461.974H470.078L458.702 430.632ZM447.21 423.435H457.541C464.815 423.435 468.452 419.914 468.452 412.871V401.844C468.452 394.802 464.815 391.28 457.541 391.28H447.21V423.435Z" fill="black"/>
<path d="M377.558 401.38C377.558 394.028 373.727 390.352 366.066 390.352C358.482 390.352 354.69 394.028 354.69 401.38V444.562C354.69 451.991 358.482 455.706 366.066 455.706C373.727 455.706 377.558 451.991 377.558 444.562V401.38ZM346.448 401.264C346.448 395.769 348.112 391.319 351.44 387.914C354.767 384.509 359.643 382.807 366.066 382.807C372.566 382.807 377.481 384.509 380.808 387.914C384.136 391.319 385.8 395.769 385.8 401.264V444.794C385.8 450.288 384.136 454.738 380.808 458.143C377.481 461.471 372.566 463.135 366.066 463.135C359.565 463.135 354.651 461.471 351.324 458.143C348.073 454.738 346.448 450.288 346.448 444.794V401.264Z" fill="black"/>
<path d="M275.983 430.632H264.491V461.974H256.249V383.967H275.17C281.361 383.967 286.043 385.554 289.216 388.727C292.389 391.822 293.975 396.078 293.975 401.496V412.988C293.975 421.345 290.648 426.763 283.992 429.239L296.413 461.974H287.359L275.983 430.632ZM264.491 423.435H274.822C282.096 423.435 285.734 419.914 285.734 412.871V401.844C285.734 394.802 282.096 391.28 274.822 391.28H264.491V423.435Z" fill="black"/>
<path d="M199.956 383.967H208.546L191.483 461.974H179.874L162.811 383.967H171.284L179.526 422.738C182.467 438.293 184.518 448.702 185.679 453.964C186.298 450.869 187.342 445.529 188.813 437.945C190.438 429.665 194.152 411.672 199.956 383.967Z" fill="black"/>
<path d="M112.724 461.974L107.965 440.151H87.0704L82.3111 461.974H74.0693L91.7137 383.967H103.322L120.966 461.974H112.724ZM88.5795 432.953H106.34L97.4016 391.977L88.5795 432.953Z" fill="black"/>
</svg>
