<svg width="647" height="464" viewBox="0 0 647 464" fill="none" xmlns="http://www.w3.org/2000/svg">
<path d="M187.946 159.061L298.482 345.418L305.625 357.459L291.624 357.499L74.9521 358.118L69.5146 358.134L67.499 353.083L3.70703 193.26L0 183.973L9.875 182.395L179.803 155.242L185.173 154.384L187.946 159.061ZM466.937 155.242L636.864 182.395L646.739 183.973L643.032 193.26L579.24 353.083L577.225 358.134L571.787 358.118L355.115 357.499L341.114 357.459L348.257 345.418L458.793 159.061L461.566 154.384L466.937 155.242ZM328.816 7.80859L436.316 142.184L439.713 146.43L437.016 151.15L329.516 339.275L322.569 351.432L315.623 339.275L208.123 151.15L205.426 146.43L208.822 142.184L316.322 7.80859L322.569 0L328.816 7.80859ZM175.355 172.94L30.4541 196.095L23.665 197.18L26.2139 203.565L80.6104 339.85L81.9951 343.322L85.7344 343.311L270.496 342.784L280.121 342.756L275.211 334.478L180.954 175.566L179.047 172.352L175.355 172.94ZM464.848 175.566L370.591 334.478L365.682 342.756L375.306 342.784L560.067 343.311L563.807 343.322L565.191 339.85L619.588 203.565L622.138 197.18L615.348 196.095L470.446 172.94L466.755 172.352L464.848 175.566ZM318.442 32.3711L226.774 146.955L224.439 149.874L226.294 153.12L317.962 313.539L322.737 321.896L327.513 313.539L419.18 153.12L421.035 149.874L418.699 146.955L327.032 32.3711L322.737 27.002L318.442 32.3711Z" fill="white"/>
<path d="M562.948 461.971L558.189 440.148H537.294L532.535 461.971H524.293L541.937 383.965H553.545L571.19 461.971H562.948ZM538.803 432.951H556.563L547.625 391.974L538.803 432.951Z" fill="white"/>
<path d="M458.703 430.629H447.211V461.971H438.969V383.965H457.89C464.081 383.965 468.763 385.551 471.936 388.724C475.109 391.82 476.695 396.076 476.695 401.493V412.985C476.695 421.343 473.367 426.76 466.712 429.236L479.133 461.971H470.078L458.703 430.629ZM447.211 423.432H457.542C464.816 423.432 468.453 419.911 468.453 412.869V401.841C468.453 394.799 464.816 391.278 457.542 391.278H447.211V423.432Z" fill="white"/>
<path d="M377.559 401.378C377.559 394.026 373.728 390.35 366.067 390.35C358.483 390.35 354.691 394.026 354.691 401.378V444.56C354.691 451.989 358.483 455.704 366.067 455.704C373.728 455.704 377.559 451.989 377.559 444.56V401.378ZM346.449 401.262C346.449 395.767 348.113 391.317 351.441 387.912C354.768 384.507 359.644 382.805 366.067 382.805C372.567 382.805 377.482 384.507 380.809 387.912C384.137 391.317 385.801 395.767 385.801 401.262V444.792C385.801 450.286 384.137 454.736 380.809 458.141C377.482 461.469 372.567 463.133 366.067 463.133C359.566 463.133 354.652 461.469 351.325 458.141C348.074 454.736 346.449 450.286 346.449 444.792V401.262Z" fill="white"/>
<path d="M275.984 430.629H264.492V461.971H256.25V383.965H275.171C281.362 383.965 286.044 385.551 289.217 388.724C292.39 391.82 293.976 396.076 293.976 401.493V412.985C293.976 421.343 290.649 426.76 283.993 429.236L296.414 461.971H287.36L275.984 430.629ZM264.492 423.432H274.823C282.097 423.432 285.735 419.911 285.735 412.869V401.841C285.735 394.799 282.097 391.278 274.823 391.278H264.492V423.432Z" fill="white"/>
<path d="M199.958 383.965H208.548L191.485 461.971H179.876L162.812 383.965H171.286L179.528 422.736C182.469 438.291 184.52 448.699 185.68 453.962C186.3 450.866 187.344 445.526 188.815 437.943C190.44 429.662 194.154 411.67 199.958 383.965Z" fill="white"/>
<path d="M112.725 461.971L107.966 440.148H87.0714L82.3121 461.971H74.0703L91.7146 383.965H103.323L120.967 461.971H112.725ZM88.5804 432.951H106.341L97.4026 391.974L88.5804 432.951Z" fill="white"/>
</svg>
